<svg width="774" height="370" viewBox="0 0 774 370" fill="none" xmlns="http://www.w3.org/2000/svg">
<path d="M620.118 246.324C636.7 275.045 647.117 306.955 650.771 340.235C654.425 373.515 651.244 407.519 641.403 440.305C631.561 473.092 615.25 504.018 593.396 531.313C571.541 558.608 544.573 581.734 514.032 599.367C483.491 617 449.979 628.792 415.413 634.071C380.848 639.35 345.91 638.013 312.595 630.143C279.28 622.273 248.242 608.025 221.247 588.22C194.253 568.416 171.826 543.44 155.245 514.719C138.663 485.998 128.246 454.089 124.592 420.809C120.938 387.528 124.118 353.524 133.96 320.738C143.802 287.951 160.113 257.026 181.967 229.731C203.822 202.435 230.789 179.309 261.331 161.676C291.872 144.043 325.384 132.251 359.95 126.972C394.515 121.693 429.453 123.031 462.768 130.901C496.083 138.771 527.121 153.019 554.116 172.823C581.11 192.628 603.536 217.604 620.118 246.324L620.118 246.324Z" stroke="url(#paint0_linear_229_207)" stroke-width="5"/>
<path d="M605.933 254.514C621.455 281.4 631.204 311.273 634.62 342.431C638.036 373.589 635.052 405.426 625.829 436.126C616.606 466.826 601.326 495.785 580.853 521.346C560.38 546.908 535.119 568.567 506.512 585.083C477.905 601.599 446.518 612.646 414.144 617.595C381.771 622.545 349.051 621.298 317.853 613.936C286.655 606.573 257.591 593.239 232.315 574.702C207.04 556.165 186.044 532.785 170.521 505.899C154.998 479.013 145.249 449.14 141.833 417.982C138.418 386.824 141.402 354.987 150.624 324.287C159.847 293.587 175.128 264.628 195.601 239.067C216.074 213.505 241.334 191.846 269.941 175.33C298.548 158.814 329.936 147.767 362.309 142.817C394.682 137.868 427.402 139.114 458.6 146.477C489.798 153.84 518.863 167.174 544.138 185.711C569.414 204.248 590.41 227.628 605.933 254.514L605.933 254.514Z" stroke="url(#paint1_linear_229_207)" stroke-width="5"/>
<path d="M635.215 237.118C652.924 267.79 664.049 301.867 667.952 337.406C671.855 372.946 668.46 409.258 657.953 444.268C647.445 479.279 630.03 512.301 606.695 541.446C583.361 570.591 554.567 595.284 521.958 614.111C489.348 632.939 453.567 645.528 416.659 651.164C379.752 656.799 342.446 655.37 306.872 646.965C271.298 638.56 238.154 623.344 209.327 602.193C180.5 581.043 156.551 554.37 138.843 523.699C121.135 493.027 110.01 458.95 106.107 423.41C102.203 387.87 105.598 351.559 116.106 316.548C126.614 281.538 144.029 248.515 167.363 219.37C190.697 190.225 219.491 165.532 252.101 146.705C284.71 127.878 320.492 115.288 357.399 109.653C394.307 104.017 431.613 105.447 467.187 113.852C502.76 122.257 535.904 137.473 564.731 158.623C593.558 179.773 617.507 206.446 635.215 237.118L635.215 237.118Z" stroke="url(#paint2_linear_229_207)" stroke-width="5"/>
<defs>
<linearGradient id="paint0_linear_229_207" x1="162.097" y1="511.428" x2="627.028" y2="253.342" gradientUnits="userSpaceOnUse">
<stop stop-color="#00CB9E"/>
<stop offset="0.541667" stop-color="#008D7A"/>
<stop offset="1" stop-color="#004554"/>
</linearGradient>
<linearGradient id="paint1_linear_229_207" x1="177.356" y1="489.979" x2="612.207" y2="245.282" gradientUnits="userSpaceOnUse">
<stop stop-color="#00CB9E"/>
<stop offset="0.5" stop-color="#008D7A"/>
<stop offset="1" stop-color="#004554"/>
</linearGradient>
<linearGradient id="paint2_linear_229_207" x1="136.424" y1="524.92" x2="877.148" y2="128.342" gradientUnits="userSpaceOnUse">
<stop stop-color="#008D7A"/>
<stop offset="0.510417" stop-color="#008D7A"/>
<stop offset="1" stop-color="#0072AB" stop-opacity="0"/>
<stop offset="1" stop-color="#004554"/>
</linearGradient>
</defs>
</svg>
