<svg width="751" height="491" viewBox="0 0 751 491" fill="none" xmlns="http://www.w3.org/2000/svg">
<path d="M165 272L165 225M390 254V232M240 265V232M315 279V212M540 277V212M180 265L180 232M405 249V239M255 272V222M480 265V224M465 262V229M330 277V218M555 262V229M194 261L194 238M420 269V218M270 277V214M495 250V237M345 269V228M570 257V235M210 279L210 212M435 261V224M285 269V228M510 259V226M360 277V212M585 263V227M225 272L225 222M450 269V218M300 263V236M525 265V218M375 269V218M600 257V235" stroke="url(#paint0_linear_374_2)" stroke-width="8" stroke-linecap="round"/>
<rect x="119" y="183" width="527" height="125" rx="62.5" stroke="url(#paint1_linear_374_2)" stroke-width="2"/>
<path d="M750.017 53.1648C750.017 52.6125 749.57 52.1648 749.017 52.1648L740.017 52.1648C739.465 52.1648 739.017 52.6125 739.017 53.1648C739.017 53.7171 739.465 54.1648 740.017 54.1648L748.017 54.1648L748.017 62.1648C748.017 62.7171 748.465 63.1648 749.017 63.1648C749.57 63.1648 750.017 62.7171 750.017 62.1648L750.017 53.1648ZM674.064 129.532L749.724 53.8719L748.31 52.4577L672.65 128.118L674.064 129.532Z" fill="url(#paint2_linear_374_2)"/>
<path d="M660.468 154.665H649.268V151.165H659.043V147.415H650.768V144.065H658.543V140.665H649.518V137.165H659.968L662.868 140.065V144.29L661.293 145.515L663.368 147.165V151.765L660.468 154.665Z" fill="url(#paint3_linear_374_2)"/>
<rect x="679.018" y="122.165" width="46" height="46" rx="23" transform="rotate(90 679.018 122.165)" stroke="url(#paint4_linear_374_2)" stroke-width="2"/>
<path d="M748.999 422C749.552 422 749.999 421.552 749.999 421L749.999 412C749.999 411.448 749.552 411 748.999 411C748.447 411 747.999 411.448 747.999 412L747.999 420L739.999 420C739.447 420 738.999 420.448 738.999 421C738.999 421.552 739.447 422 739.999 422L748.999 422ZM672.632 346.046L748.292 421.707L749.706 420.293L674.046 344.632L672.632 346.046Z" fill="url(#paint5_linear_374_2)"/>
<path d="M650 333.5L650.65 320.5L654.8 320.5L654.2 329.7H659.6V320.5L663.8 320.5L663.8 338L659.6 338L659.6 333.5L650 333.5Z" fill="url(#paint6_linear_374_2)"/>
<rect x="680" y="351" width="46" height="46" rx="23" transform="rotate(-180 680 351)" stroke="url(#paint7_linear_374_2)" stroke-width="2"/>
<path d="M382.439 0.292891C382.048 -0.0976345 381.415 -0.0976345 381.024 0.292891L374.66 6.65685C374.27 7.04738 374.27 7.68054 374.66 8.07107C375.051 8.46159 375.684 8.46159 376.075 8.07107L381.731 2.41421L387.388 8.07107C387.779 8.46159 388.412 8.46159 388.803 8.07107C389.193 7.68054 389.193 7.04738 388.803 6.65685L382.439 0.292891ZM382.731 108V0.999999H380.731V108H382.731Z" fill="url(#paint8_linear_374_2)"/>
<path d="M388.003 137.311V140.961H374.503V131.586L383.803 130.336V127.111H374.603V123.461H384.953L388.003 126.511V133.261L378.703 134.511V137.311H388.003Z" fill="url(#paint9_linear_374_2)"/>
<rect x="381.024" y="99.2877" width="46" height="46" rx="23" transform="rotate(45 381.024 99.2877)" stroke="url(#paint10_linear_374_2)" stroke-width="2"/>
<path d="M388.317 490.462C388.708 490.853 389.341 490.853 389.732 490.462L396.095 484.099C396.486 483.708 396.486 483.075 396.095 482.684C395.705 482.294 395.072 482.294 394.681 482.684L389.024 488.341L383.368 482.684C382.977 482.294 382.344 482.294 381.953 482.684C381.563 483.075 381.563 483.708 381.953 484.099L388.317 490.462ZM388.024 382.755V489.755H390.024V382.755H388.024Z" fill="url(#paint11_linear_374_2)"/>
<path d="M396.002 354.944H386.702V357.794L396.002 358.619V365.744L392.952 368.794H382.602V365.144H391.802V361.619L382.502 360.819V351.294H396.002V354.944Z" fill="url(#paint12_linear_374_2)"/>
<rect x="389.731" y="391.468" width="46" height="46" rx="23" transform="rotate(-135 389.731 391.468)" stroke="url(#paint13_linear_374_2)" stroke-width="2"/>
<path d="M2.00021 70.0002C1.44793 70.0002 1.00021 70.4479 1.00021 71.0002L1.00021 80.0002C1.00021 80.5525 1.44793 81.0002 2.00021 81.0002C2.5525 81.0002 3.00022 80.5525 3.00021 80.0002L3.00022 72.0002L11.0002 72.0002C11.5525 72.0002 12.0002 71.5525 12.0002 71.0002C12.0002 70.4479 11.5525 70.0002 11.0002 70.0002L2.00021 70.0002ZM78.3678 145.954L2.70732 70.2931L1.29311 71.7073L76.9535 147.368L78.3678 145.954Z" fill="url(#paint14_linear_374_2)"/>
<path d="M90.125 173.1V169.825L92.375 169.7V159.65L90.225 159.875V156.5L96.575 155.5V169.7L98.625 169.825V173.1L94.375 172.9L90.125 173.1Z" fill="url(#paint15_linear_374_2)"/>
<rect x="71" y="141" width="46" height="46" rx="23" stroke="url(#paint16_linear_374_2)" stroke-width="2"/>
<path d="M0.000220708 425C0.000219659 425.552 0.447935 426 1.00022 426L10.0002 426C10.5525 426 11.0002 425.552 11.0002 425C11.0002 424.448 10.5525 424 10.0002 424L2.00022 424L2.00022 416C2.00022 415.448 1.55251 415 1.00022 415C0.447934 415 0.000220367 415.448 0.000219402 416L0.000220708 425ZM75.9535 348.632L0.293114 424.293L1.70733 425.707L77.3678 350.046L75.9535 348.632Z" fill="url(#paint17_linear_374_2)"/>
<path d="M89.025 342L86.125 339.1V327.4L89.025 324.5H99.2V328.15H90.325V330.85H98.3L100.125 332.675V339.1L97.225 342H89.025ZM90.325 338.5H95.925V333.75H90.325V338.5Z" fill="url(#paint18_linear_374_2)"/>
<rect x="71" y="356" width="46" height="46" rx="23" transform="rotate(-90 71 356)" stroke="url(#paint19_linear_374_2)" stroke-width="2"/>
<defs>
<linearGradient id="paint0_linear_374_2" x1="165" y1="246" x2="703.5" y2="246" gradientUnits="userSpaceOnUse">
<stop stop-color="#0072AB"/>
<stop offset="0.317708" stop-color="#00CB9E"/>
<stop offset="0.697917" stop-color="#008D7A"/>
<stop offset="0.958333" stop-color="#004554"/>
</linearGradient>
<linearGradient id="paint1_linear_374_2" x1="118" y1="246" x2="656.5" y2="242.5" gradientUnits="userSpaceOnUse">
<stop offset="0.109375" stop-color="#0172AB"/>
<stop offset="0.489583" stop-color="#01C99F"/>
<stop offset="1" stop-color="#016F6A"/>
</linearGradient>
<linearGradient id="paint2_linear_374_2" x1="711.187" y1="90.995" x2="711.894" y2="91.7021" gradientUnits="userSpaceOnUse">
<stop stop-color="#0172AB"/>
<stop offset="1" stop-color="#01927D"/>
</linearGradient>
<linearGradient id="paint3_linear_374_2" x1="656.518" y1="127.665" x2="656.518" y2="162.665" gradientUnits="userSpaceOnUse">
<stop stop-color="white"/>
<stop offset="1" stop-color="white" stop-opacity="0.5"/>
</linearGradient>
<linearGradient id="paint4_linear_374_2" x1="704.018" y1="121.165" x2="704.018" y2="169.165" gradientUnits="userSpaceOnUse">
<stop stop-color="#0172AB"/>
<stop offset="1" stop-color="#01927D"/>
</linearGradient>
<linearGradient id="paint5_linear_374_2" x1="711.169" y1="383.17" x2="710.462" y2="383.877" gradientUnits="userSpaceOnUse">
<stop stop-color="#0172AB"/>
<stop offset="1" stop-color="#016F6A"/>
</linearGradient>
<linearGradient id="paint6_linear_374_2" x1="657" y1="311" x2="657" y2="346" gradientUnits="userSpaceOnUse">
<stop stop-color="white"/>
<stop offset="1" stop-color="white" stop-opacity="0.5"/>
</linearGradient>
<linearGradient id="paint7_linear_374_2" x1="705" y1="352" x2="705" y2="400" gradientUnits="userSpaceOnUse">
<stop stop-color="#0172AB"/>
<stop offset="1" stop-color="#016F6A"/>
</linearGradient>
<linearGradient id="paint8_linear_374_2" x1="381.731" y1="54.5" x2="382.731" y2="54.5" gradientUnits="userSpaceOnUse">
<stop stop-color="#01B290"/>
<stop offset="1" stop-color="#0172AB"/>
</linearGradient>
<linearGradient id="paint9_linear_374_2" x1="381.378" y1="113.961" x2="381.378" y2="148.961" gradientUnits="userSpaceOnUse">
<stop stop-color="white"/>
<stop offset="1" stop-color="white" stop-opacity="0.5"/>
</linearGradient>
<linearGradient id="paint10_linear_374_2" x1="405.024" y1="97.8735" x2="405.024" y2="145.874" gradientUnits="userSpaceOnUse">
<stop stop-color="#01B290"/>
<stop offset="1" stop-color="#0172AB"/>
</linearGradient>
<linearGradient id="paint11_linear_374_2" x1="389.024" y1="436.255" x2="388.024" y2="436.255" gradientUnits="userSpaceOnUse">
<stop stop-color="#0172AB"/>
<stop offset="1" stop-color="#01BF97"/>
</linearGradient>
<linearGradient id="paint12_linear_374_2" x1="389.377" y1="341.794" x2="389.377" y2="376.794" gradientUnits="userSpaceOnUse">
<stop stop-color="white"/>
<stop offset="1" stop-color="white" stop-opacity="0.5"/>
</linearGradient>
<linearGradient id="paint13_linear_374_2" x1="413.731" y1="392.882" x2="413.731" y2="440.882" gradientUnits="userSpaceOnUse">
<stop stop-color="#0172AB"/>
<stop offset="1" stop-color="#01BF97"/>
</linearGradient>
<linearGradient id="paint14_linear_374_2" x1="39.8304" y1="108.83" x2="40.5375" y2="108.123" gradientUnits="userSpaceOnUse">
<stop stop-color="#01C49A"/>
<stop offset="1" stop-color="#0172AB"/>
</linearGradient>
<linearGradient id="paint15_linear_374_2" x1="94.5" y1="146" x2="94.5" y2="181" gradientUnits="userSpaceOnUse">
<stop stop-color="white"/>
<stop offset="1" stop-color="white" stop-opacity="0.5"/>
</linearGradient>
<linearGradient id="paint16_linear_374_2" x1="94" y1="140" x2="94" y2="188" gradientUnits="userSpaceOnUse">
<stop stop-color="#01C49A"/>
<stop offset="1" stop-color="#0172AB"/>
</linearGradient>
<linearGradient id="paint17_linear_374_2" x1="38.8304" y1="387.17" x2="38.1233" y2="386.462" gradientUnits="userSpaceOnUse">
<stop stop-color="#01C99D"/>
<stop offset="1" stop-color="#0172AB"/>
</linearGradient>
<linearGradient id="paint18_linear_374_2" x1="93.5" y1="315" x2="93.5" y2="350" gradientUnits="userSpaceOnUse">
<stop stop-color="white"/>
<stop offset="1" stop-color="white" stop-opacity="0.5"/>
</linearGradient>
<linearGradient id="paint19_linear_374_2" x1="94" y1="357" x2="94" y2="405" gradientUnits="userSpaceOnUse">
<stop stop-color="#01C99D"/>
<stop offset="1" stop-color="#0172AB"/>
</linearGradient>
</defs>
</svg>
