<svg width="150" height="141" viewBox="0 0 150 141" fill="none" xmlns="http://www.w3.org/2000/svg">
<path d="M5 97.2V48.8L15.8 38H49.2L60 48.8V97.2L49.2 108H15.8L5 97.2ZM19.2 50.8V95.2H45.8V50.8H19.2ZM123.039 91.2V108H69.0391V69.8L103.639 64.8V54.8H69.2391V38H109.439L123.039 51.6V78.1L88.4391 83.1V91.2H123.039Z" fill="white" fill-opacity="0.56"/>
<path d="M56.8 124.952V97.848L62.848 91.8H81.552L87.6 97.848V124.952L81.552 131H62.848L56.8 124.952ZM64.752 98.968V123.832H79.648V98.968H64.752ZM146.102 114.872V131H94.2619V94.328L127.478 89.528V79.928H94.4539V63.8H133.046L146.102 76.856V102.296L112.886 107.096V114.872H146.102Z" fill="url(#paint0_linear_534_547)"/>
<defs>
<linearGradient id="paint0_linear_534_547" x1="102" y1="27" x2="102" y2="131" gradientUnits="userSpaceOnUse">
<stop stop-color="#676767"/>
<stop offset="1" stop-color="#4FC3E3" stop-opacity="0.72"/>
</linearGradient>
</defs>
</svg>
