<svg width="151" height="141" viewBox="0 0 151 141" fill="none" xmlns="http://www.w3.org/2000/svg">
<path d="M5 97.2V48.8L15.8 38H49.2L60 48.8V97.2L49.2 108H15.8L5 97.2ZM19.2 50.8V95.2H45.8V50.8H19.2ZM112.439 108H68.0391V92H105.239V80H74.0391V64.8H103.239V54H69.0391V38H110.439L123.239 50.8V66.3L116.739 71.4L125.239 78.2V95.2L112.439 108Z" fill="white" fill-opacity="0.56"/>
<path d="M56.8 124.952V97.848L62.848 91.8H81.552L87.6 97.848V124.952L81.552 131H62.848L56.8 124.952ZM64.752 98.968V123.832H79.648V98.968H64.752ZM135.926 131H93.3019V115.64H129.014V104.12H99.0619V89.528H127.094V79.16H94.2619V63.8H134.006L146.294 76.088V90.968L140.054 95.864L148.214 102.392V118.712L135.926 131Z" fill="url(#paint0_linear_534_548)"/>
<defs>
<linearGradient id="paint0_linear_534_548" x1="102.5" y1="27" x2="102.5" y2="131" gradientUnits="userSpaceOnUse">
<stop stop-color="#676767"/>
<stop offset="1" stop-color="#4FC3E3"/>
</linearGradient>
</defs>
</svg>
