<svg width="150" height="141" viewBox="0 0 150 141" fill="none" xmlns="http://www.w3.org/2000/svg">
<path d="M5 97.2V48.8L15.8 38H49.2L60 48.8V97.2L49.2 108H15.8L5 97.2ZM19.2 50.8V95.2H45.8V50.8H19.2ZM123.039 54.8H88.4391V63.2L123.039 66.6V94.4L109.439 108H69.2391V91.2H103.639V80.4L69.0391 77V38H123.039V54.8Z" fill="white" fill-opacity="0.56"/>
<path d="M56.8 124.952V97.848L62.848 91.8H81.552L87.6 97.848V124.952L81.552 131H62.848L56.8 124.952ZM64.752 98.968V123.832H79.648V98.968H64.752ZM146.102 79.928H112.886V87.992L146.102 91.256V117.944L133.046 131H94.4539V114.872H127.478V104.504L94.2619 101.24V63.8H146.102V79.928Z" fill="url(#paint0_linear_534_550)"/>
<defs>
<linearGradient id="paint0_linear_534_550" x1="102" y1="27" x2="102" y2="129" gradientUnits="userSpaceOnUse">
<stop stop-color="#676767"/>
<stop offset="1" stop-color="#4FC3E3" stop-opacity="0.72"/>
</linearGradient>
</defs>
</svg>
